<svg width="100" height="100" viewBox="0 0 100 100" fill="none" xmlns="http://www.w3.org/2000/svg">
  <rect width="100" height="100" rx="20" fill="#4F46E5"/>
  <g transform="translate(27, 31) scale(1)">
    <path d="M12.8209 37.5418L45.0995 2.68615C45.97 1.74283 45.6141 0.533665 44.5293 0.769495L16.8557 6.77672L12.1863 37.4003C12.1305 37.7605 12.5336 37.8505 12.8209 37.5418Z" fill="white"/>
    <path d="M1.84836 23.1046C0.767827 23.3404 0.40765 22.1313 1.27808 21.1879L16.8686 6.74231L14.8576 20.2789" fill="#E34234"/>
    <path d="M1.84836 23.1046C0.767827 23.3404 0.40765 22.1313 1.27808 21.1879L16.8686 6.74231L14.8576 20.2789" fill="url(#paint0_linear_431_46)" fill-opacity="0.4"/>
    <path d="M30.2894 24.2238L45.3096 35.1706C46.5574 36.0796 45.6784 37.6446 43.9161 37.6489L12.525 37.7304C12.2206 37.7304 12.0662 37.4603 12.2849 37.3016L30.2894 24.2195V24.2238Z" fill="#4F99FE"/>
    <defs>
      <linearGradient id="paint0_linear_431_46" x1="6.16525" y1="15.98" x2="22.8153" y2="17.5705" gradientUnits="userSpaceOnUse">
        <stop stop-color="#E34234"/>
        <stop offset="0.377276" stop-color="#CE3326"/>
        <stop offset="0.704421" stop-color="#2F0704"/>
      </linearGradient>
    </defs>
  </g>
</svg>
