<?xml version="1.0" encoding="UTF-8" standalone="no"?>
<svg width="1200" height="630" viewBox="0 0 1200 630" fill="none" xmlns="http://www.w3.org/2000/svg">
  <!-- Dark background with gradient -->
  <rect width="1200" height="630" fill="#0f172a" />
  
  <!-- Background gradient elements -->
  <circle cx="600" cy="315" r="400" fill="url(#purpleGlow)" opacity="0.15" />
  <circle cx="900" cy="450" r="300" fill="url(#blueGlow)" opacity="0.15" />
  
  <!-- Subtle grid pattern -->
  <rect width="1200" height="630" fill="url(#gridPattern)" opacity="0.1" />
  
  <!-- Main content container -->
  <g transform="translate(200, 130)">
    <!-- Logo and branding - Moved up from y=160 to y=130 -->
    <g transform="translate(0, 0)">
      <!-- Zip Logo and AI Toolkit in a horizontally centered group -->
      <g>
        <!-- Zip Logo - Using the actual zip_white.svg -->
        <g transform="translate(0, 0) scale(0.18)">
          <path d="M25.6301 145.161L94.4058 70.8945C96.2604 68.8846 95.5021 66.3082 93.1907 66.8107L34 80L24.278 144.859C24.1592 145.627 25.018 145.819 25.6301 145.161Z" fill="white"/>
          <path d="M2.25325 114.863C-0.0490184 115.365 -0.816441 112.789 1.03816 110.779L34 80L29.9718 108.842" fill="white"/>
          <path d="M62.8488 116.784L94.8522 140.108C97.5108 142.045 95.6379 145.379 91.883 145.388L24.9984 145.562C24.3498 145.562 24.0209 144.986 24.4868 144.648L62.8488 116.774V116.784Z" fill="white"/>
          <path d="M77.6213 221.895L82.4634 191.235L163.554 110.144L163.956 109.34H98.5976L105.852 66.9851H236.971L231.727 100.88L157.086 178.755L156.684 179.559H220.837L213.985 221.913H77.6213V221.895Z" fill="white"/>
          <path d="M230.722 221.895L256.54 66.9668H312.215L286.397 221.895H230.722ZM286.799 50.8327C279.271 50.8327 273.186 48.3294 268.545 43.3229C263.904 38.3164 262.186 32.3414 263.392 25.4163C264.598 18.3633 268.308 12.3519 274.484 7.41843C280.659 2.48499 287.53 0 295.058 0C302.586 0 308.707 2.46672 313.22 7.41843C317.733 12.3701 319.414 18.3633 318.263 25.4163C317.185 32.3414 313.567 38.3164 307.428 43.3229C301.27 48.3294 294.4 50.8327 286.799 50.8327Z" fill="white"/>
          <path d="M291.438 279.982L327.142 66.9669H382.415L377.974 93.9912H379.18C382.013 88.7471 385.722 83.9233 390.326 79.5198C394.931 75.1162 400.376 71.5897 406.661 68.922C412.947 66.2726 419.927 64.9387 427.583 64.9387C437.797 64.9387 447.043 67.6612 455.32 73.1063C463.597 78.5514 469.682 87.1209 473.573 98.8333C477.465 110.527 477.867 125.73 474.779 144.422C471.819 162.31 466.557 177.129 458.992 188.896C451.428 200.663 442.548 209.434 432.37 215.226C422.174 221.018 411.577 223.905 400.54 223.905C393.286 223.905 386.983 222.717 381.684 220.324C376.367 217.93 372.109 214.678 368.875 210.548C365.641 206.419 363.43 201.723 362.224 196.479H361.018L347.296 280H291.42L291.438 279.982ZM368.692 144.422C367.486 151.95 367.395 158.455 368.437 163.936C369.478 169.418 371.598 173.657 374.795 176.654C377.993 179.65 382.141 181.149 387.257 181.149C392.373 181.149 396.941 179.687 400.979 176.763C405.017 173.84 408.434 169.637 411.266 164.156C414.08 158.674 416.181 152.096 417.515 144.44C418.721 136.766 418.831 130.206 417.826 124.725C416.821 119.243 414.774 115.041 411.668 112.117C408.58 109.193 404.469 107.732 399.371 107.732C394.273 107.732 389.595 109.193 385.393 112.117C381.19 115.041 377.664 119.243 374.795 124.725C371.926 130.206 369.898 136.784 368.692 144.44V144.422Z" fill="white"/>
        </g>
        
        <!-- AI Toolkit text - Matching the navbar style with vertical alignment -->
        <g transform="translate(100, 10)">
          <!-- AI with border -->
          <rect x="0" y="0" width="46" height="34" rx="6" stroke="white" stroke-width="2" fill="none" />
          <text x="23" y="23" font-family="sans-serif" font-weight="bold" font-size="20" fill="white" text-anchor="middle">AI</text>
          <!-- Toolkit text - Moved closer to AI and aligned vertically -->
          <text x="55" y="23" font-family="sans-serif" font-weight="bold" font-size="26" fill="white">Toolkit</text>
        </g>
      </g>
    </g>
    
    <!-- Main headline - Added more space between header and hero text -->
    <text x="0" y="130" font-family="sans-serif" font-weight="bold" font-size="64" fill="white">Add Payment Services</text>
    <text x="0" y="210" font-family="sans-serif" font-weight="bold" font-size="64" fill="white">to Your <tspan fill="url(#textGradient)">AI Agent</tspan></text>
    
    <!-- Subheadline -->
    <text x="0" y="270" font-family="sans-serif" font-size="28" fill="#94A3B8">Seamlessly integrate Zip payment services into your AI agent</text>
    <text x="0" y="310" font-family="sans-serif" font-size="28" fill="#94A3B8">with minimal configuration.</text>
    
    <!-- Framework compatibility icons -->
    <g transform="translate(0, 370)">
      <!-- OpenAI -->
      <g transform="translate(0, 0)">
        <circle cx="35" cy="35" r="35" fill="#202020" />
        <!-- OpenAI SVG path -->
        <g transform="translate(17, 17) scale(1.5)">
          <path fill="white" fill-rule="evenodd" d="M21.55 10.004a5.416 5.416 0 00-.478-4.501c-1.217-2.09-3.662-3.166-6.05-2.66A5.59 5.59 0 0010.831 1C8.39.995 6.224 2.546 5.473 4.838A5.553 5.553 0 001.76 7.496a5.487 5.487 0 00.691 6.5 5.416 5.416 0 00.477 4.502c1.217 2.09 3.662 3.165 6.05 2.66A5.586 5.586 0 0013.168 23c2.443.006 4.61-1.546 5.361-3.84a5.553 5.553 0 003.715-2.66 5.488 5.488 0 00-.693-6.497v.001zm-8.381 11.558a4.199 4.199 0 01-2.675-.954c.034-.018.093-.05.132-.074l4.44-2.53a.71.71 0 00.364-.623v-6.176l1.877 1.069c.02.01.033.029.036.05v5.115c-.003 2.274-1.87 4.118-4.174 4.123zM4.192 17.78a4.059 4.059 0 01-.498-2.763c.032.02.09.055.131.078l4.44 2.53c.225.13.504.13.73 0l5.42-3.088v2.138a.068.068 0 01-.027.057L9.9 19.288c-1.999 1.136-4.552.46-5.707-1.51h-.001zM3.023 8.216A4.15 4.15 0 015.198 6.41l-.002.151v5.06a.711.711 0 00.364.624l5.42 3.087-1.876 1.07a.067.067 0 01-.063.005l-4.489-2.559c-1.995-1.14-2.679-3.658-1.53-5.63h.001zm15.417 3.54l-5.42-3.088L14.896 7.6a.067.067 0 01.063-.006l4.489 2.557c1.998 1.14 2.683 3.662 1.529 5.633a4.163 4.163 0 01-2.174 1.807V12.38a.71.71 0 00-.363-.623zm1.867-2.773a6.04 6.04 0 00-.132-.078l-4.44-2.53a.731.731 0 00-.729 0l-5.42 3.088V7.325a.068.068 0 01.027-.057L14.1 4.713c2-1.137 4.555-.46 5.707 1.513.487.833.664 1.809.499 2.757h.001zm-11.741 3.81l-1.877-1.068a.065.065 0 01-.036-.051V6.559c.001-2.277 1.873-4.122 4.181-4.12.976 0 1.92.338 2.671.954-.034.018-.092.05-.131.073l-4.44 2.53a.71.71 0 00-.365.623l-.003 6.173v.002zm1.02-2.168L12 9.25l2.414 1.375v2.75L12 14.75l-2.415-1.375v-2.75z" />
        </g>
      </g>
      
      <!-- LangChain -->
      <g transform="translate(90, 0)">
        <circle cx="35" cy="35" r="35" fill="#202020" />
        <!-- LangChain SVG path -->
        <g transform="translate(17, 17) scale(1.5)">
          <path fill="#10B981" fill-rule="evenodd" d="M8.373 14.502c.013-.06.024-.118.038-.17l.061.145c.115.28.229.557.506.714-.012.254-.334.357-.552.326-.048-.114-.115-.228-.255-.164-.143.056-.3-.01-.266-.185.333-.012.407-.371.468-.666zM18.385 9.245c-.318 0-.616.122-.839.342l-.902.887c-.243.24-.368.572-.343.913l.006.056c.032.262.149.498.337.682.13.128.273.21.447.266a.866.866 0 01-.247.777l-.056.055a2.022 2.022 0 01-1.355-1.555l-.01-.057-.046.037c-.03.024-.06.05-.088.078l-.902.887a1.156 1.156 0 000 1.65c.231.228.535.342.84.342.304 0 .607-.114.838-.341l.902-.888a1.156 1.156 0 00-.436-1.921.953.953 0 01.276-.842 2.062 2.062 0 011.371 1.57l.01.057.047-.037c.03-.024.06-.05.088-.078l.902-.888a1.155 1.155 0 000-1.65 1.188 1.188 0 00-.84-.342z" />
          <path clip-rule="evenodd" fill="#10B981" fill-rule="evenodd" d="M17.901 6H6.1C2.736 6 0 8.692 0 12s2.736 6 6.099 6H17.9C21.264 18 24 15.308 24 12s-2.736-6-6.099-6zm-5.821 9.407c-.195.04-.414.047-.562-.106-.045.1-.136.077-.221.056a.797.797 0 00-.061-.014c-.01.025-.017.048-.026.073-.329.021-.575-.309-.732-.558a4.991 4.991 0 00-.473-.21c-.172-.07-.345-.14-.509-.23a2.218 2.218 0 00-.004.173c-.002.244-.004.503-.227.651-.007.295.236.292.476.29.207-.003.41-.005.447.184a.485.485 0 01-.05.003c-.046 0-.092 0-.127.034-.117.111-.242.063-.372.013-.12-.046-.243-.094-.367-.02a2.318 2.318 0 00-.262.154.97.97 0 01-.548.194c-.024-.036-.014-.059.006-.08a.562.562 0 00.043-.056c.019-.028.035-.057.051-.084.054-.095.103-.18.242-.22-.185-.029-.344.055-.5.137l-.004.002a4.21 4.21 0 01-.065.034c-.097.04-.154.009-.212-.023-.082-.045-.168-.092-.376.04-.04-.032-.02-.061.002-.086.091-.109.21-.125.345-.119-.351-.193-.604-.056-.81.055-.182.098-.327.176-.471-.012-.065.017-.102.063-.138.108-.015.02-.03.038-.047.055-.035-.039-.027-.083-.018-.128l.005-.026a.242.242 0 00.003-.03l-.027-.01c-.053-.022-.105-.044-.09-.124-.117-.04-.2.03-.286.094-.054-.041-.01-.095.032-.145a.279.279 0 00.045-.065c.038-.065.103-.067.166-.069.054-.001.108-.003.145-.042.133-.075.297-.036.462.003.121.028.242.057.354.042.203.025.454-.18.352-.385-.186-.233-.184-.528-.183-.813v-.143c-.016-.108-.172-.233-.328-.358-.12-.095-.24-.191-.298-.28-.16-.177-.285-.382-.409-.585l-.015-.024c-.212-.404-.297-.86-.382-1.315-.103-.546-.205-1.09-.526-1.54-.266.144-.612.075-.841-.118-.12.107-.13.247-.138.396l-.001.014c-.297-.292-.26-.844-.023-1.17.097-.128.213-.233.342-.326.03-.021.04-.042.039-.074.235-1.04 1.836-.839 2.342-.103.167.206.281.442.395.678.137.283.273.566.5.795.22.237.452.463.684.689.359.35.718.699 1.032 1.089.49.587.839 1.276 1.144 1.97.05.092.08.193.11.293.044.15.089.299.2.417.026.035.084.088.149.148.156.143.357.328.289.409.009.019.027.04.05.06.032.028.074.058.116.088.122.087.25.178.16.25zm7.778-3.545l-.902.887c-.24.237-.537.413-.859.51l-.017.005-.006.015A2.021 2.021 0 0117.6 14l-.902.888c-.393.387-.916.6-1.474.6-.557 0-1.08-.213-1.474-.6a2.03 2.03 0 010-2.9l.902-.888c.242-.238.531-.409.859-.508l.016-.004.006-.016c.105-.272.265-.516.475-.724l.902-.887c.393-.387.917-.6 1.474-.6.558 0 1.08.213 1.474.6.394.387.61.902.61 1.45 0 .549-.216 1.064-.61 1.45v.001z" />
        </g>
      </g>
      
      <!-- Claude -->
      <g transform="translate(180, 0)">
        <circle cx="35" cy="35" r="35" fill="#202020" />
        <!-- Claude SVG path -->
        <g transform="translate(17, 17) scale(1.5)">
          <path fill="white" fill-rule="evenodd" d="M4.709 15.955l4.72-2.647.08-.23-.08-.128H9.2l-.79-.048-2.698-.073-2.339-.097-2.266-.122-.571-.121L0 11.784l.055-.352.48-.321.686.06 1.52.103 2.278.158 1.652.097 2.449.255h.389l.055-.157-.134-.098-.103-.097-2.358-1.596-2.552-1.688-1.336-.972-.724-.491-.364-.462-.158-1.008.656-.722.881.06.225.061.893.686 1.908 1.476 2.491 1.833.365.304.145-.103.019-.073-.164-.274-1.355-2.446-1.446-2.49-.644-1.032-.17-.619a2.97 2.97 0 01-.104-.729L6.283.134 6.696 0l.996.134.42.364.62 1.414 1.002 2.229 1.555 3.03.456.898.243.832.091.255h.158V9.01l.128-1.706.237-2.095.23-2.695.08-.76.376-.91.747-.492.584.28.48.685-.067.444-.286 1.851-.559 2.903-.364 1.942h.212l.243-.242.985-1.306 1.652-2.064.73-.82.85-.904.547-.431h1.033l.76 1.129-.34 1.166-1.064 1.347-.881 1.142-1.264 1.7-.79 1.36.073.11.188-.02 2.856-.606 1.543-.28 1.841-.315.833.388.091.395-.328.807-1.969.486-2.309.462-3.439.813-.042.03.049.061 1.549.146.662.036h1.622l3.02.225.79.522.474.638-.079.485-1.215.62-1.64-.389-3.829-.91-1.312-.329h-.182v.11l1.093 1.068 2.006 1.81 2.509 2.33.127.578-.322.455-.34-.049-2.205-1.657-.851-.747-1.926-1.62h-.128v.17l.444.649 2.345 3.521.122 1.08-.17.353-.608.213-.668-.122-1.374-1.925-1.415-2.167-1.143-1.943-.14.08-.674 7.254-.316.37-.729.28-.607-.461-.322-.747.322-1.476.389-1.924.315-1.53.286-1.9.17-.632-.012-.042-.14.018-1.434 1.967-2.18 2.945-1.726 1.845-.414.164-.717-.37.067-.662.401-.589 2.388-3.036 1.44-1.882.93-1.086-.006-.158h-.055L4.132 18.56l-1.13.146-.487-.456.061-.746.231-.243 1.908-1.312-.006.006z" />
        </g>
      </g>
      
      <!-- Vercel -->
      <g transform="translate(270, 0)">
        <circle cx="35" cy="35" r="35" fill="#202020" />
        <!-- Vercel SVG path -->
        <g transform="translate(17, 17) scale(1.5)">
          <path d="M12 2L22 22H2L12 2Z" fill="white" />
        </g>
      </g>
      
      <!-- Compatible with text -->
      <text x="340" y="40" font-family="sans-serif" font-size="22" fill="white">Compatible with OpenAI, LangChain, Claude, Vercel</text>
    </g>
  </g>
  
  <!-- Definitions -->
  <defs>
    <!-- Gradient definitions -->
    <linearGradient id="textGradient" x1="0%" y1="0%" x2="100%" y2="0%">
      <stop offset="0%" stop-color="#8B5CF6" />
      <stop offset="100%" stop-color="#3B82F6" />
    </linearGradient>
    
    <radialGradient id="purpleGlow" cx="0.5" cy="0.5" r="0.5" fx="0.5" fy="0.5">
      <stop offset="0%" stop-color="#8B5CF6" />
      <stop offset="100%" stop-color="#8B5CF6" stop-opacity="0" />
    </radialGradient>
    
    <radialGradient id="blueGlow" cx="0.5" cy="0.5" r="0.5" fx="0.5" fy="0.5">
      <stop offset="0%" stop-color="#3B82F6" />
      <stop offset="100%" stop-color="#3B82F6" stop-opacity="0" />
    </radialGradient>
    
    <!-- Grid pattern -->
    <pattern id="gridPattern" x="0" y="0" width="20" height="20" patternUnits="userSpaceOnUse">
      <rect width="20" height="20" fill="none" />
      <path d="M 20 0 L 0 0 0 20" stroke="white" stroke-width="0.5" fill="none" />
    </pattern>
  </defs>
</svg>
